<svg xmlns="http://www.w3.org/2000/svg" viewBox="0 0 800 400">
  <defs>
    <linearGradient id="grad1" x1="0%" y1="0%" x2="100%" y2="100%">
      <stop offset="0%" style="stop-color:#667eea;stop-opacity:1" />
      <stop offset="100%" style="stop-color:#764ba2;stop-opacity:1" />
    </linearGradient>
  </defs>

  <!-- Background -->
  <rect width="800" height="400" fill="#f7fafc"/>

  <!-- House -->
  <polygon points="400,120 280,220 520,220" fill="url(#grad1)"/>
  <rect x="320" y="220" width="160" height="140" fill="#667eea"/>
  <rect x="360" y="260" width="40" height="60" fill="#f7fafc"/>
  <circle cx="380" cy="290" r="3" fill="#667eea"/>

  <!-- Family figures -->
  <!-- Father -->
  <circle cx="320" cy="310" r="18" fill="#fbbf24"/>
  <rect x="310" y="328" width="20" height="30" rx="3" fill="#3b82f6"/>

  <!-- Mother -->
  <circle cx="380" cy="310" r="18" fill="#fbbf24"/>
  <path d="M 370 328 L 390 328 L 395 358 L 365 358 Z" fill="#ec4899"/>

  <!-- Child 1 -->
  <circle cx="420" cy="320" r="14" fill="#fbbf24"/>
  <rect x="412" y="334" width="16" height="24" rx="2" fill="#10b981"/>

  <!-- Child 2 -->
  <circle cx="460" cy="320" r="14" fill="#fbbf24"/>
  <path d="M 452 334 L 468 334 L 472 358 L 448 358 Z" fill="#f97316"/>

  <!-- Hearts -->
  <g fill="#ef4444" opacity="0.7">
    <path d="M 350,280 C 348,275 342,275 340,280 C 338,275 332,275 330,280 C 330,285 340,290 340,290 C 340,290 350,285 350,280 Z"/>
    <path d="M 430,270 C 428,265 422,265 420,270 C 418,265 412,265 410,270 C 410,275 420,280 420,280 C 420,280 430,275 430,270 Z"/>
  </g>

  <!-- Text -->
  <text x="400" y="380" font-family="Arial, sans-serif" font-size="24" fill="#1e293b" text-anchor="middle" font-weight="bold">Protection Familiale</text>
</svg>
